<svg viewBox="0 0 1080 1080" xmlns="http://www.w3.org/2000/svg">
  <polyline points="755,555 71,1053 760,974 903,984 724,993 875,1041 873,951 998,952 127,1053 285,961 189,994 675,1055 277,1018 113,968 113,928 507,947 422,981 459,1075 269,1013 566,997 174,1010 559,1054 205,1014 493,1018 268,862 228,1045 244,948 162,1066 688,1038 951,991 818,1043 854,1062 1062,1065 715,1076 908,1063 343,1000 340,1042 86,1004 228,896 757,975 340,890 383,928 320,876 623,1016 717,851 769,925 836,972 762,874 671,953 588,950 790,876 784,878 746,869 519,987 313,983 813,948 690,873 966,946 748,945 926,934 768,952 251,1000 323,873 465,1033 84,1070 34,1016 197,933 522,976 827,947 772,958 821,912 831,915 839,959 751,951 901,944 873,943 628,957 491,989 450,986 785,938 716,907 917,905 669,918 304,996 943,1027 1043,991 609,925 565,948 621,969 896,935 660,929 912,963 360,924 989,938 452,989 305,994 833,900 859,935 633,979 625,988 713,934 751,909 722,805 744,945 801,926 756,936 846,910 824,923 478,986 377,987 714,964 660,938 648,932 541,960 765,938 797,917 868,969 610,913 706,941 760,851 981,966 918,991 781,1010 231,890 839,959 561,992 283,874 1033,1034 1010,1055 607,1016 774,897 920,913 496,967 600,934 671,952 804,892 672,781 1005,968 903,981 1063,994 514,931 632,956 790,862 563,985 538,952 831,888 493,990 240,869 592,976 725,967 635,973 710,871 770,895 696,920 539,999 801,869 699,823 810,944 850,911 804,947 892,926 739,938 916,925 488,960 626,916 862,980 320,901 621,1009 705,835 718,936 520,960 852,941 504,954 711,1022 331,963 353,965 949,945 894,936 609,961 610,947 779,898 1034,1035 311,905 61,929 69,1060 401,1044 696,1079 311,823 736,1063 920,934 796,939 750,908 768,861 753,914 944,945 865,913 216,1021 780,867 675,1041 216,860 620,989 123,911 294,897 756,959 701,924 751,878 584,938 419,939 482,926 270,861 114,933 611,961 618,912 808,940 666,936 712,869 864,903 666,865 766,906 583,929 961,946 1037,988 924,1036 571,1014 545,1004 680,871 1079,1002 154,874 174,1039 61,1048 188,924 136,912 115,1073 1059,1079 666,773 794,965 745,924 763,953 693,784 863,1003 930,973 976,984 133,906 452,931 327,894 0,982 168,969 39,1014 704,936 885,891 326,1077 139,1079 590,1055 416,1055 505,1050 510,1054 597,1076 679,1031 329,878 673,971 723,952 844,962 321,914 926,943 638,958 768,949 614,951 499,963 844,898 838,896 626,940 904,946 936,944 721,949 731,955 807,943 757,932 336,929 547,931 669,957 891,898 761,927 846,958 769,943 637,961 431,961 871,948 709,839 779,964 467,986 497,982 590,992 115,988 52,957 313,980 278,968 25,950 178,949 314,945 97,969 363,962 302,818 436,908 307,979 278,939 41,916 471,1069 610,1017 356,1061 713,1007 33,1043 712,984 751,1069 487,993 53,988 289,964 255,939 80,927 68,1017 571,757 86,926 248,986 120,984 228,969 61,952 236,949 192,962 351,940 402,704 414,735 517,821 525,840 643,718 247,929 1,1016 419,963 93,996 366,957 60,943 37,951 104,989 391,796 379,884 228,833 384,848 372,814 105,929 44,1074 122,843 270,1073 133,1049 289,1044 310,1046 240,1018 791,1028 829,1055 477,1028 958,993 879,1047 967,1077 1070,1059 967,977 160,1072 600,1052 787,1064 970,1000 99,1044 161,1021 557,1024 600,1034 923,1010 943,1002 274,1017 715,1066 127,1003 115,954 81,1004 68,1004 47,1033 53,1044 777,1073 385,1061 951,1054 1061,1020 893,1052 180,1044 151,978 306,942 414,937 54,1067 45,956 825,1070 1044,1024 477,1064 109,945 369,808 316,834 244,1012 255,953 41,1067 320,1057 202,1033 294,1045 17,1022 8,1004 45,959 556,966 885,1078 539,1045 785,1069 774,1063 837,1067 105,1067 735,1071 231,1063 301,964 243,979 180,938 189,955 247,965 843,1064 337,1067 70,979 404,967 103,909 507,781 298,837 161,1030 357,953 76,971 176,939 243,1053 36,996 278,1027 1063,1040 660,1014 685,999 45,950 22,955 912,1008 945,1068 1041,1071 118,1071 237,943 712,1079 655,986 805,1031 1072,1078 1056,964 762,1007 1047,1042 755,996 268,1028 138,1021 292,1029 129,1026 242,895 173,1009 121,1053 839,1077 16,961 46,1052 620,1070 888,996 1004,998 437,993 81,950 356,976 443,953 333,932 322,965 434,944 116,954 243,975 10,928 60,1072 97,1076 237,939 23,981 35,1062 63,1078 391,1057 1074,929 801,983 1043,927 807,993 967,1047 265,969 323,1070 285,1073 190,1020 173,969 249,949 357,982 218,966 399,980 305,971 849,1075 539,1059 80,1051 107,1008 208,1025 303,969 138,915 250,1024 15,1057 187,877 389,1033 24,1030 4,1055 115,879 501,1058 843,1049 869,1029 89,1043 208,1020 888,1079 838,997 887,967 380,746 283,1054 989,979 940,1068 445,998 341,611 579,1021 602,1057 553,1014 521,1020 185,1053 10,1060 173,896 148,950 828,1066 965,1030 1078,1055 645,1038 773,1075 978,1020 801,1035 421,1028 947,1048 561,1073 1001,1041 894,924 684,811 818,1062 813,1056 563,1027 735,1052 696,132 353,254 557,161 554,205 416,162 544,206 484,139 676,233 654,154 520,160 496,174 376,91 610,184 587,192 394,209 605,130 520,189 277,132 742,201 326,231 641,180 645,243 631,183 596,188 361,174 393,193 521,188 529,206 373,149 683,206 545,179 477,222 554,115 326,222 795,75 212,273 727,87 223,335 480,136 715,147 432,143 413,187 427,127 359,160 451,215 614,164 526,200 407,195 668,175 447,203 416,183 465,154 605,219 477,132 587,213 647,177 330,245 334,332 354,223 483,131 629,151 399,162 304,324 389,162 324,301 481,214 468,138 394,217 449,212 376,219 659,204 488,81 371,171 539,190 408,112 679,245 564,175 373,187 490,130 513,214 647,153 357,240 479,118 337,239 550,165 677,188 418,215 459,208 436,127 270,403 402,220 617,53 344,178 631,170 656,199 318,236 450,58 337,388 344,412 395,120 368,248 342,264 470,90 562,169 441,213 355,230 375,125 707,164 489,181 538,139 174,319 920,13 377,158 563,170 391,133 649,198 534,129 357,113 336,507 461,90 773,270 297,92 430,277 429,79 504,206 593,170 652,197 713,279 642,239 461,162 306,354 405,63 606,169 471,197 635,77 725,500 682,259 722,358 607,404 668,404 741,174 212,190 921,157 322,139 774,192 392,225 499,157 513,176 246,282 568,162 551,212 501,175 671,221 632,213 552,144 317,232 565,187 573,110 528,196 533,149 698,204 472,192 421,138 678,224 473,150 448,158 422,228 509,189 603,161 530,209 652,209 396,138 372,278 409,170 658,216 651,228 716,269 557,154 234,65 633,213 691,253 467,88 656,233 458,158 675,162 427,241 540,58 623,267 487,109 699,240 605,196 678,236 429,154 458,221 581,109 258,176 658,168 370,182 633,147 403,184 608,47 425,236 514,180 560,209 702,223 543,153 586,150 295,81 674,226 422,98 402,288 340,185 499,98 589,192 320,254 603,171 387,164 668,81 433,230 343,237 316,333 362,307 425,67 381,267 347,177 540,179 587,174 661,223 626,128 717,283 694,293 504,109 665,233 363,120 527,215 499,161 330,233 526,181 575,131 350,205 430,196 653,209 689,222 702,282 465,127 352,208 548,123 564,197 419,151 446,142 576,148 396,105 405,173 746,182 403,117 784,212 240,979 176,1018 699,723 522,820 627,764 608,809 398,826 693,696 116,1017 1,957 754,748 6,937 536,809 590,798 654,765 688,615 521,868 628,739 703,630 523,859 417,750 512,846 695,742 481,862 335,570 323,10 109,106 93,114 64,102 104,8 70,99 118,8 217,140 191,165 105,1 36,63 179,106 9,65 101,120 112,38 166,100 156,19 100,112 456,474 358,403 628,405 744,306 651,509 808,91 289,1024 512,514 353,889 562,768 557,854 363,667 460,860 714,711 421,853 187,905 275,930 372,776 551,772 366,716 539,788 452,755 357,875 301,820 513,783 664,755 694,654 609,817 375,841 176,901 712,780 557,806 466,795 370,695 729,884 615,919 736,471 672,160 707,380 542,438 304,919 418,751 309,921 717,675 57,889 75,1068 236,1044 465,659 243,945 440,789 720,792 501,759 750,846 516,694 609,794 377,871 206,838 417,896 41,912 3,1068 178,778 7,1017 501,740 68,932 273,943 297,897 290,926 389,949 80,866 767,1048 787,976 451,745 419,784 718,770 688,828 246,744 593,810 147,894 21,964 215,902 59,897 99,1018 44,1020 456,784 681,772 211,826 638,811 397,753 451,767 370,826 203,896 437,807 628,737 641,767 552,817 362,802 733,749 20,904 472,876 288,858 440,744 430,749 397,759 522,833 479,829 719,686 293,881 824,715 281,862 418,894 589,761 538,808 745,703 545,826 623,661 696,845 436,746 639,856 863,880 729,859 751,859 767,865 776,863 815,893 807,903 327,667 691,876 613,901 426,735 1020,931 34,726 721,770 332,738 458,766 376,737 641,851 980,917 989,1002 979,953 746,1009 901,1034 808,1024 635,710 627,782 465,802 574,853 745,583 478,866 153,840 78,989 76,932 375,854 597,760 653,780 752,841 752,844 678,823 87,652 673,800 356,799 430,762 434,799 325,876 332,831 260,1017 619,741 457,817 304,559 710,822 767,871 694,783 438,767 620,782 218,935 385,845 391,905 361,856 527,941 30,1046 110,991 40,981 109,869 452,976 813,497 528,871 742,627 663,240 637,249 529,223 751,267 692,310 248,997 458,567 276,1036 325,854 382,863 389,914 299,142 342,373 289,330 455,450 139,89 238,145 113,11 285,136 16,4 175,23 420,16 180,16 259,39 38,75 184,93 149,200 12,87 47,161 124,183 22,45 153,243 95,90 27,170 204,182 87,89 66,357 495,409 315,495 349,215 387,469 437,451 376,461 430,429 449,404 436,451 336,425 344,462 357,230 352,539 362,354 435,470 406,373 434,427 356,367 56,9 30,264 134,175 6,143 9,44 25,66 298,234 374,509 323,237 374,854 508,984 1041,1025 530,954 769,995 1049,969 985,1020 906,934 686,1026 977,985 964,1059 427,1006 530,1019 991,939 620,983 835,995 516,1003 123,919 328,825 180,873 376,810 336,56 674,132 464,115 921,127 385,251 324,508 355,589 388,769 273,127 229,180 397,482 279,222 387,478 369,406 173,247 52,280 66,214 78,164 101,125 131,148 187,346 193,105 312,57 238,28 484,111 568,7 134,3 284,71 264,54 562,78 210,57 376,82 326,498 317,120 369,939 348,923 911,1018 1050,958 122,1009 199,890 69,935 989,1004 632,1046 718,776 792,869 998,1067 763,803 160,118 62,226 111,130 25,132 188,117 6,164 129,151 349,66 335,50 608,108 473,85 579,33 294,68 69,151 5,139 32,50 61,245 50,66 64,150 102,223 235,46 128,88 221,218 222,223 55,107 91,242 65,92 44,278 466,423 151,243 181,190 53,115 424,174 21,85 88,147 1,5 164,396 7,53 48,281 94,210 334,167 318,439 349,380 298,9 393,9 386,71 268,74 299,7 350,486 319,15 6,3 306,8 359,659 323,389 638,452 573,427 180,355 31,84 72,42 39,230 60,57 566,22 153,86 87,181 178,143 3,113 218,270 155,231 279,121 334,442 341,153 344,531 246,33 71,53 512,89 530,45 558,108 562,136 632,117 526,120 676,104 182,57 372,40 615,164 535,92 86,19 63,255 379,23 673,144 457,103 237,43 174,31 503,94 559,119 123,32 519,49 183,72 430,467 308,334 402,805 191,59 294,120 403,1070 267,42 453,40 472,88 461,52 683,207 544,225 528,217 354,265 284,271 382,506 367,295 93,58 204,39 535,42 432,1 65,4 37,74 60,33 573,70 452,60 336,71 241,63 598,52 182,69 326,27 503,131 467,17 548,102 476,15 408,92 26,197 129,105 114,306 178,175 127,82 546,31 485,53 51,122 738,260 679,420 696,239 539,216 255,261 91,140 55,297 410,1 318,452 333,316 13,277 117,500 0,205 127,709 78,1008 1053,1001 1028,968 888,881 927,970 887,927 817,908 699,824 662,642 672,682 673,639 742,923 472,922 763,918 568,574 851,1000 1,991 38,1021 1018,1056 899,1057 708,1023 325,917 540,1026 947,1076 318,1003 726,978 810,988 105,906 761,990 634,820 725,253 683,722 488,769 341,631 1036,980 901,967 899,1069 935,1058 666,1057 715,48 797,12 665,54 710,704 550,584 720,825 619,595 575,611 647,624 605,634 588,581 380,905 286,1056 881,1018 1047,970 579,795 969,920 1006,1027 906,1016 802,1029 1071,1061 879,1077 879,985 799,856 912,927 494,702 480,508 835,933 962,921 599,826 997,935 1001,1043 798,1013 475,984 273,896 29,836 799,1044 28,846 295,891 4,1021 115,817 492,936 412,930 371,937 84,802 156,1076 150,1052 852,828 1027,1067 813,870 1075,982 1075,1034 1041,1017 1054,1062 1002,1061 950,1072 971,948 951,1077 174,1078 1013,1065 1051,1030 880,859 110,1026 422,1035 389,961 912,1028 838,1054 98,899 331,945 913,990 302,1000 225,1010 236,987 987,846 1062,1055 959,931 1068,1079 943,950 677,786 853,969 7,1027 129,813 71,978 179,826 242,880 394,1033 560,1043 957,1062 1015,917 393,906 1029,933 1033,1060 1028,838 991,1053 1031,1067 1032,1047 965,1065 684,777 736,11 1043,2 1020,60 1009,41 1068,26 916,121 954,54 905,28 696,121 728,734 652,1040 1077,1041 986,972 1029,1055 1065,1077 482,1077 848,1071 1073,1051 725,1032 1056,931 876,1030 969,935 809,888 583,916 823,826 424,999 1078,974 1008,1026 841,813 614,924 400,900 308,1068 818,809 601,933 896,756 609,1070 387,989 522,1005 945,1019 961,914 1038,1043 684,998 702,476 725,373 656,403 666,219 782,242 534,572 748,156 548,506 52,1055 17,890 1033,1061 866,979 564,988 756,981 730,974 974,953 540,739 630,754 818,857 987,946 1027,970 801,850 430,973 118,1007 585,981 42,1030 717,968 893,1011 518,966 933,989 954,1073 1061,1030 1005,918 962,1035 948,910 633,893 737,841 589,923 874,858 1054,1046 895,1053 1007,1017 1059,1057 845,1021 500,943 399,910 411,916 430,924 296,1059 916,967 972,926 1000,1017 1039,945 1003,982 952,971 1033,976 987,990 568,1043 943,1073 482,1035 987,984 647,839 725,486 444,407 341,405 651,439 717,537 689,721 745,62 691,15 706,318 675,862 1056,933 539,923 39,87 227,47 146,718 55,173 36,500 28,326 314,433 89,447 158,52 291,126 203,239 248,291 136,14 84,15 902,1 92,240 73,308 121,393 99,385 139,236 71,304 347,104 33,407 58,386 0,1063 7,614 86,1072 79,1073 52,1055 337,1043 437,1071 50,1079 369,1020 672,1066 3,205 24,484 195,257 217,248 263,206 115,235 42,408 296,138 63,64 8,57 31,627 197,229 94,367 1,23 31,52 12,233 41,10 6,299 3,157 40,47 162,117 68,358 306,504 64,131 267,456 226,369 239,458 209,383 97,361 84,228 154,539 181,143 27,467 72,251 100,364 115,266 128,211 74,263 134,204 157,332 177,214 177,254 144,264 77,238 138,424 156,231 280,255 131,342 12,228 121,463 134,333 198,374 85,305 130,270 181,257 13,419 10,237 37,451 0,199 38,289 140,416 195,384 209,324 467,91 715,58 1023,50 836,78 450,83 118,113 171,304 240,233 208,260 262,194 110,371 103,283 685,204 729,255 624,407 593,378 699,493 647,196 603,62 1071,88 822,36 134,120 1063,7 780,19 367,22 104,604 25,242 217,470 26,319 280,208 50,268 31,376 96,319 100,435 100,396 176,363 76,293 153,435 8,1064 364,1058 57,231 123,509 14,195 42,160 128,442 16,148 83,484 143,307 12,220 108,347 281,344 97,349 170,217 112,365 83,430 275,77 2,1077 74,1002 30,960 52,961 50,1033 225,973 143,329 106,199 150,286 220,275 267,209 186,292 206,233 234,292 113,200 330,526 26,273 160,323 126,331 102,369 133,373 178,467 185,258 107,415 165,261 289,140 124,224 391,194 66,296 195,263 289,312 121,170 173,454 169,338 210,229 83,245 155,468 5,248 220,506 6,304 34,228 9,285 158,351 40,423 217,169 298,160 70,381 183,405 297,96 122,457 73,308 91,273 129,410 27,204 187,481 230,104 1,336 139,236 99,367 200,203 214,273 27,386 28,191 50,461 308,98 132,146 715,3 219,125 388,84 498,121 782,144 992,21 245,29 1066,10 456,23 238,28 24,2 371,32 492,26 443,10 459,38 647,0 572,98 721,320 603,428 725,279 693,350 683,315 664,236 650,303 592,223 641,270 661,213 634,91 752,4 536,34 905,44 1058,14 695,86 995,76 170,87 246,177 164,57 1027,213 1019,68 1063,14 1079,53 998,37 863,153 1010,56 1020,69 1028,54 894,202 399,247 348,332 414,241 794,174 606,275 807,209 776,192 986,110 799,177 957,70 869,75 1010,40 968,36 907,253 859,116 817,145 947,84 812,124 935,83 793,101 1029,58 948,130 1078,130 1023,137 1032,107 932,1 602,450 621,431 762,419 617,295 769,287 494,218 748,303 547,62 724,259 707,489 595,358 648,493 634,427 689,280 607,198 701,404 721,326 630,247 541,207 687,294 664,190 660,165 725,470 679,287 750,61 861,73 598,41 258,31 194,46 446,7 935,13 126,1034 224,927 256,836 541,704 188,869 340,838 142,856 185,866 38,694 526,947 290,800 244,906 693,282 596,193 651,180 679,198 537,236 541,212 471,242 510,229 539,229 503,222 767,230 694,205 629,231 683,320 691,218 583,3 434,14 609,77 440,134 865,379 386,413 334,416 750,720 53,210 721,26 956,192 746,23 772,184 1041,97 694,91 661,447 643,241 468,200 761,288 539,209 666,230 696,331 712,212 456,22 616,6 440,92 746,147 655,303 666,223 459,245 53,637 70,794 70,508 40,440 116,1030 450,605 232,818 243,820 343,963 105,880 104,472 34,721 80,676 79,619 60,574 28,1059 101,898 510,580 730,684 417,549 1079,144 703,135 523,31 772,326 575,189 780,319 637,239 723,428 655,132 650,305 665,453 589,381 1001,68 1044,188 998,113 1059,96 966,67 578,431 590,398 511,771 596,729 104,898 16,1079 134,651 76,999 82,1035 89,1048 622,1050 141,848 175,866 117,898 35,1072 9,934 291,952 221,958 732,279 721,385 713,186 632,460 671,151 612,457 766,202 662,265 685,370 744,427 695,224 675,445 695,87 608,115 1024,89 974,148 234,300 184,420 25,1006 184,1020 321,1012 259,851 20,967 114,888 251,878 25,480 130,581 144,479 646,397 816,121 1029,91 808,245 379,683 909,118 771,94 1061,85 951,156 514,40 741,450 492,415 737,394 678,165 755,475 602,346 697,195 664,407 708,70 1072,164 1076,86 872,113 1033,20 875,55 1015,91 972,53 18,22 31,32 246,141 987,33 809,107 813,143 912,92 591,116 729,97 1031,188 933,126 747,94 700,614 655,698 673,766 729,410 668,64 699,279 704,208 619,136 507,121 600,53 661,106 1042,197 933,131 1014,214 1045,235 965,149 1069,212 531,428 241,465 158,638 105,1074 74,961 12,473 20,373 24,989 337,1034 610,1058 20,1061 730,980 1047,997 864,904 649,902 708,849 393,1012 344,1009 553,1021 205,899 195,949 612,812 523,838 415,778 224,409 154,670 371,246 338,325 336,140 387,101 84,923 262,398 351,206 277,86 95,193 61,195 143,10 391,308 338,350 326,141 363,94 308,312 230,318 215,347 241,363 144,655 183,671 636,640 617,597 201,644 210,618 151,593 371,221 389,471 371,357 362,380 388,412 367,267 274,203 334,199 366,217 398,88 362,98 410,127 326,179 66,1064 95,1056 71,960 92,869 314,427 31,998 1,258 299,933 288,922 263,279 413,785 398,731 499,855 657,730 644,797 717,623 686,605 336,610 271,500 217,593 161,651 172,657 165,559 112,501 111,611 222,512 129,787 485,919 89,50 271,1 80,78 197,159 49,34 481,16 220,560 291,335 113,541 78,430 69,386 35,898 546,979 65,623 425,447 301,467 631,402 259,486 3,1067 9,357 203,1052 116,958 318,417 277,419 191,751 80,435 689,455 522,391 207,564 130,822 195,738 210,514 467,784 37,444 7,908 47,888 65,710 52,824 123,1026 67,940 735,909 306,660 513,598 123,724 398,98 338,211 278,397 293,412 423,871 371,905 228,860 454,882 292,900 209,698 646,617 155,588 416,730 432,630 346,830 491,724 505,787 469,798 461,776 464,747 170,512 13,1069 160,1065 109,1038 45,1031 313,1058 964,1067 1076,994 964,1078 223,1029 9,419 16,520 9,558 28,729 259,500 239,498 397,723 199,398 119,1062 523,1010 241,740 138,804 249,430 377,238 295,322 192,444 414,716 344,928 337,201 433,471 286,136 153,50 251,78 213,62 400,747 269,299 149,659 586,589 462,678 879,922 69,525 47,1004 17,833 68,169 954,53 114,171 434,74 590,54 584,16 610,130 646,142 559,68 658,32 437,203 577,236 4,173 8,6 73,35 128,47 44,224 17,753 10,422 65,611 58,392 29,934 29,650 737,652 318,636 393,454 404,460 382,445 751,369 656,915 192,572 285,490 81,967 426,1063 228,2 26,28 467,20 230,4 335,6 374,441 8,550 18,546 624,409 301,488 227,255 298,509 54,486 458,739 164,638 98,537 404,22 818,34 437,50 675,103 6,140 5,411 0,258 2,185 371,90 46,35 66,73 856,17 901,25 706,32 820,29 697,694 706,417 679,382 379,969 457,977 303,950 156,837 539,694 505,695 477,531 572,608 704,976 176,821 280,850 122,817 679,751 368,742 177,959 180,845 296,751 63,986 445,1013 528,1072 512,1074 940,904 893,938 17,650 112,553 73,567 267,213 400,195 392,506 426,242 395,226 376,479 397,483 447,423 464,406 301,350 431,409 105,26 24,10 5,373 26,350 151,26 221,109 243,43 60,42 181,102 282,96 73,838 33,1064 2,1050 55,520 254,1022 958,950 1073,1043 890,957 324,986 105,997 871,958 1008,901 1007,903 823,919 1013,930 901,999 866,899 724,818 803,836 894,966 803,992 1005,965 682,974 748,81 850,374 935,112 1068,39 914,132 1073,389 1011,167 974,113 910,237 912,318 775,169 1044,319 1034,98 1063,153 1035,28 993,56 61,27 156,151 93,21 179,98 55,41 926,206 894,199 330,80 411,110 1044,236 962,185 1068,311 1041,184 1074,169 934,278 930,301 869,204 801,352 817,208 1041,230 767,361 625,887 1053,1036 935,1021 931,1003 785,915 1022,935 1025,1064 104,1063 226,1073 1075,995 897,1024 929,891 660,842 684,593 693,316 1073,107 975,364 1002,28 261,4 437,187 126,221 456,113 499,134 355,378 388,256 397,529 392,273 330,379 495,415 512,845 496,706 510,813 1033,1008 879,1051 1028,1004 969,888 899,1059 1068,998 1024,1059 871,887 1062,1065 929,855 716,1016 851,1012 909,920 1033,932 824,917 384,354 409,211 526,76 66,77 74,59 689,154 1040,278 1026,90 742,285 1030,153 1009,155 929,376 808,239 998,161 813,207 870,271 731,94 631,5 596,54 305,46 361,58 366,202 376,93 156,328 110,626 216,371 188,492 278,191 102,17 106,181 267,185 328,289 725,882 586,656 489,654 673,653 554,770 655,732 452,787 161,764 416,898 99,801 142,710 19,833 168,1068 541,1038 523,1057 22,1070 348,1079 75,576 175,1055 31,987 348,1010 432,972 123,1077 16,926 13,867 701,707 323,922 49,1033 428,1074 396,719 609,737 710,778 850,941 412,784 591,738 163,882 415,916 64,883 70,842 81,351 640,183 600,129 130,73 940,185 908,205 933,222 743,238 976,195 878,173 830,339 917,176 566,13 985,246 1037,303 530,471 705,419 549,468 375,360 362,591 796,864 320,235 355,809 355,764 294,1010 460,1034 428,996 36,999 66,962 7,896 8,669 21,531 141,792 553,543 427,392 323,425 60,54 74,140 88,89 104,168 35,1005 21,975 69,755 112,943 101,936 137,1060 992,1002 1074,988 406,621 580,575 429,611 703,558 731,489 697,299 722,1045 1018,1017 26,1051 355,928 270,920 459,896 54,913 507,896 498,430 285,531 164,963 328,1048 101,1030 235,866 48,1049 113,1008 411,1012 254,938 212,854 230,722 307,689 1,1048 479,1079 82,1061 220,1051 171,1063 565,473 218,958 313,450 83,135 87,206 198,387 393,418 18,7 94,44 243,341 127,291 644,647 552,592 132,637 107,621 125,619 629,607 619,681 633,757 188,725 490,919 268,777 177,731 77,967 228,888 441,980 731,864 536,465 610,386 715,552 683,880 682,904 844,904 764,905 407,900 338,876 704,1011 236,1034 322,1077 863,1066 895,1076 478,1050 577,503 691,63 178,149 325,105 96,231 5,162 81,60 174,173 957,14 670,12 422,101 460,96 561,91 471,74 869,33 925,37 1002,18 187,142 13,37 47,40 91,1001 145,1053 304,1056 634,1050 946,1023 838,1037 4,1072 207,988 30,1018 61,1060 21,368 115,230 437,475 396,423 151,853 290,574 72,1058 583,783 678,687 245,349 103,479 43,974 192,921 608,925 158,956 455,892 220,775 152,799 94,1012 1059,1032 997,946 14,416 91,1070 139,957 489,956 73,656 4,989 134,1038 103,1030 292,694 15,990 21,1039 136,1015 186,948 261,620 339,670 221,727 511,572 212,830 10,1047 76,1026 23,1079 87,1048 71,1064 89,1070 192,904 108,826 23,1049 455,1030 517,1052 491,1043 498,1077 368,981 452,979 12,919 135,1043 89,1028 564,1051 753,765 537,571 702,729 89,115 248,233 265,714 266,691 277,817 490,572 775,678 322,644 47,827 112,660 157,611 3,883 20,539 84,883 5,1051 21,1054 104,882 140,645 51,1006 149,1052 196,853 472,963 76,806 9,1022 248,1050 110,887 402,948 53,872 401,954 106,882 207,1061 243,934 217,726 84,1033 185,959 276,561 288,609 225,572 476,742 284,583 348,522 351,506 504,436 755,466 556,446 532,878 569,413 728,402 724,480 688,623 75,725 176,335 931,48 896,38 524,97 586,28 65,17 513,54 846,2 524,1 824,56 1069,195 954,94 210,162 3,219 233,66 137,6 256,19 355,21 149,12 120,29 1008,192 1072,72 856,10 968,50 1030,197 195,57 608,41 721,27 947,216 1076,1077 1064,938 732,964 790,960 787,1049 351,967 659,763 251,831 281,849 285,862 338,866 221,214 321,250 278,186 396,160 54,180 1037,290 798,236 780,247 927,249 801,275 641,484 803,100 681,156 627,170 899,235 744,365 692,659 800,213 1072,261 920,278 262,178 685,731 656,690 638,803 689,585 1049,144 997,12 984,63 303,43 26,146 225,440 241,426 72,716 296,274 47,61 33,831 80,204 773,65 796,315 977,116 903,367 782,275 860,247 963,404 923,242 772,273 1000,211 1079,202 1002,374 972,287 898,281 966,216 1076,221 1014,6 1031,490 1054,18 1047,98 1051,378 1066,171 722,331 935,260 945,151 881,151 589,132 348,164 434,169 43,113 933,23 1041,219 943,82 831,89 905,88 948,171 1078,133 1074,116 1050,2 936,124 900,103 437,141 429,124 1032,288 1003,234 1071,23 1072,356 1073,339 991,295 662,243 1052,23 1066,15 1075,33 1063,325 889,213 909,362 934,400 737,233 1019,470 1079,198 967,79 504,17 396,11 82,501 20,16 4,232 27,79 57,507 113,530 93,647 129,427 84,457 253,446 140,359 150,575 94,456 131,541 32,296 39,87 112,117 107,742 110,305 860,137 915,442 1008,29 632,34 1008,379 558,420 1046,249 1049,320 888,284 994,133 920,273 1061,13 1070,162 1072,491 820,193 993,68 963,59 942,388 964,175 1017,120 876,328 1044,56 983,121 936,212 1064,53 757,27 971,31 105,6 1060,27 1077,6 1027,297 836,363 1016,281 1077,127 897,359 953,185 805,150 931,182 1034,197 1053,119 968,326 681,319 662,486 694,418 750,461 1021,101 960,244 1028,409 956,5 662,6 775,15 346,84 137,575 99,397 160,617 131,770 80,444 167,720 153,845 223,551 319,614 305,773 206,389 89,497 140,386 236,510 159,763 196,648 24,466 3,624 6,512 59,542 134,452 52,462 337,509 489,439 331,502 280,3 32,80 29,330 7,18 311,12 566,8 750,4 1041,139 1056,157 1065,5 1076,175 1068,281 864,343 1000,166 1069,491 934,125 681,112 857,176 530,112 944,139 1060,215 922,209 984,412 1055,104 1077,707 1064,372 68,537 110,703 253,330 343,120 138,105 816,36 771,135 792,143 755,69 950,63 792,87 1010,0 614,57 982,431 733,336 737,366 143,29 569,275 586,229 657,466 672,424 933,467 421,406 144,351 414,300 340,332 467,481 506,447 249,427 228,407 176,629 336,508 477,84 995,1 1019,42 536,121 214,394 278,325 229,422 208,554 1070,1076 1027,789 215,1065 578,627 580,601 620,630 619,587 652,934 1045,1036 981,843 941,1052 659,852 623,930 733,902 204,1031 864,978 691,764 435,866 211,904 453,806 231,897 233,71 383,1031 1027,961 799,1034 987,999 53,1004 286,92 424,170 68,83 447,413 193,431 250,338 858,57 951,113 945,132 41,102 83,21 307,18 449,477 380,320 351,488 374,308 358,141 188,87 320,118 278,119 344,109 146,728 775,872 374,718 252,865 404,810 81,915 563,689 770,838 807,854 1034,1070 433,1008 780,859 917,815 605,870 906,982 1069,1067 1065,971 778,841 1026,1078 748,977 1047,1075 1067,1061 920,858 948,1009 786,843 469,576 475,548 570,753 234,780 481,611 624,615 635,815 1008,860 841,1062 1012,1033 617,649 289,851 334,793 406,873 486,797 974,895 208,983 935,1050 1045,1013 935,975 596,868 1049,1049 1038,976 974,1044 295,935 641,601 430,814 678,799 708,781 1077,983 601,958 883,875 898,1048 703,1029 1006,853 1040,1067 748,1017 1053,981 574,858 991,982 1077,1073 984,860 599,907 894,932 742,869 893,933 613,910 727,791 655,870 795,765 921,971 74,1 53,53 64,234 600,215 57,144 22,433 1,127 45,80 60,528 457,381 518,721 1047,1028 979,941 917,891 854,913 854,938 613,644 22,682 62,554 5,970 55,1074 210,1019 995,883 296,894 87,827 95,803 76,768 246,443 268,1008 276,978 1033,883 556,919 952,912 843,805 628,904 525,938 1003,899 986,890 329,690 332,758 278,633 365,508 352,629 188,342 644,437 770,356 564,401 483,520 474,400 314,418 253,164 185,257 3,1061 36,247 455,127 275,235 551,146 863,216 1061,31 936,59 327,65 337,144 560,151 321,152 420,256 671,270 560,436 774,148 643,115 183,237 160,201 218,326 426,315 373,307 211,343 537,238 708,310 612,281 327,254 90,37 77,25 171,111 498,513 486,542 500,653 541,782 1058,957 986,1072 1004,1077 782,1040 20,769 6,885 1,1026 113,660 38,438 2,58 44,283 168,529 40,1031 165,533 269,372 35,223 18,81 70,86 86,125 55,59 224,320 456,181 331,247 848,365 803,430 815,437 877,407 702,216 583,164 795,62 147,45 326,236 464,300 469,180 101,519 33,363 85,787 149,778 239,647 46,817 16,996 71,711 560,637 77,835 183,591 69,323 289,418 340,614 270,486 378,546 344,388 343,243 363,122 794,452 850,262 723,569 541,853 132,364 180,353 222,323 82,636 53,621 24,245 325,118 89,228 41,404 67,376 165,487 174,323 176,551 161,408 110,688 24,1001 692,1047 520,1074 500,1074 336,1071 644,1075 152,1060 561,1033 772,1073 649,291 571,214 154,359 191,949 36,585 35,270 211,13 937,156 457,128 1063,22 921,106 629,449 626,188 932,207 566,53 59,43 195,73 9,17 2,71 235,131 649,58 520,114 1057,53 960,8 201,1 22,86 145,184 2,1028 3,972 475,991 998,1067 1058,989 951,904 1050,1014 1037,964 1066,0 1003,12 808,18 181,108 181,48 155,31 66,281 27,615 34,539 712,897 332,700 241,740 248,686 223,631 242,664 286,406 341,620 134,719 494,611 7,846 38,729 297,782 2,751 3,250 45,836 13,518 22,90 7,858 93,382 165,499 312,721 195,642 441,893 132,1074 873,1055 399,1050 849,1070 1054,1063 1070,844 1052,797 1060,662 1059,1004 1012,891 996,888 991,935 572,227 176,339 45,546 15,1042 155,1075 233,1072 1017,1032 1064,959 1060,759 962,848 1040,819 1071,1016 953,991 277,869 321,534 296,727 343,697 203,778 369,250 615,192 141,341 461,223 219,245 19,955 304,782 262,733 413,851 836,788 426,821 410,882 554,941 905,204 180,50 865,1 608,300 670,79 514,79 902,348 953,343 958,337 489,491 922,378 777,392 760,445 505,471 912,426 625,449 820,432 554,827 801,453 771,202 492,132 752,144 883,214 469,528 486,705 723,738 703,272 691,309 746,169 869,109 629,435 525,432 762,324 881,390 619,461 713,394 712,653 176,635 498,782 596,646 553,543 923,27 611,177 709,261 732,276 554,265 608,270 572,285 903,385 868,385 1003,337 949,350 1079,411 1058,37 1019,127 615,85 195,31 160,706 303,719 446,608 385,675 449,842 761,557 517,802 627,751 676,739 631,724 30,931 228,644 44,918 218,937 482,796 620,365 443,573 1032,5 973,10 916,55 390,114 467,136 106,338 35,134 349,202 904,296 750,389 907,312 709,401 722,33 744,56 631,88 225,746 290,371 226,670 92,890 358,511 662,364 645,182 747,217 629,393 521,407 1070,595 989,158 1021,658 1062,164 1077,152 952,536 819,425 826,491 1027,366 829,502 1069,279 1017,586 1056,303 966,370 869,289 1026,512 959,432 920,347 813,381 1027,471 986,249 932,388 902,529 1065,1076 1016,1063 1014,290 1022,454 859,389 559,415 931,241 181,237 6,216 10,612 407,1079 197,976 477,1015 186,148 2,48 12,419 64,507 92,249 113,312 108,210 115,250 89,317 319,264 667,713 678,743 540,473 882,242 722,199 1046,271 294,479 612,407 685,254 263,236 234,260 409,118 400,480 397,391 429,296 307,270 282,122 30,9 273,80 555,2 48,904 340,1047 112,1048 390,927 317,876 304,890 227,872 403,1066 236,1033 621,366 433,694 493,797 157,650 123,742 323,494 300,433 237,457 244,663 327,363 402,1008 448,885 11,355 304,141 193,495 322,606 449,295 483,622 458,82 1052,24 1073,446 903,393 786,431 964,407 1071,247 970,508 925,347 922,493 877,347 272,470 361,614 168,195 73,245 217,183 987,383 1067,411 832,448 942,90 930,134 524,481 630,389 628,376 745,468 1063,334 1005,345 1060,205 1028,45 1033,414 1035,479 472,454 333,549 372,631 61,67 434,94 389,67 361,725 350,627 200,129 621,331 653,284 934,131 956,166 657,248 191,205 286,191 141,351 156,460 130,421 289,623 373,631 294,190 370,596 361,670 419,272 388,344 407,340 602,222 451,215 309,682 421,386 496,557 657,631 486,546 416,278 385,367 672,687 524,588 663,662 356,406 444,470 272,361 855,796 919,792 896,886 683,934 872,333 865,510 1022,326 955,346 940,582 548,209 788,291 936,335 229,476 321,232 191,233 154,70 43,369 154,943 689,942 664,271 935,145 475,349 133,913 300,511 206,103 466,0 642,24 638,28 346,304 487,263 378,334 689,312 898,313 879,344 885,288 877,330 801,335 776,252 844,479 906,428 881,404 1043,589 999,473 498,229 590,332 792,185 869,198 162,252 83,238 54,171 406,443 367,567 393,167 511,132 339,476 253,333 119,212 142,573 52,742 39,988 758,908 788,907 526,628 528,672 393,785 585,853 716,605 672,646 421,573 738,995 524,975 386,1054 633,1059 38,581 75,205 439,51 731,14 436,31 592,101 715,18 170,96 230,105 32,173 41,50 33,33 90,40 64,59 8,55 53,746 37,961 97,756 159,1053 327,866 346,768 352,809 12,49 574,28 644,231 18,28 50,120 133,101 142,78 169,384 288,549 301,924 835,982 781,1047 645,968 864,1076 160,1061 802,1016 149,1044 1048,1075 1074,996 499,694 997,961 281,1049 781,1079 1031,753 917,835 918,831 890,813 15,870 0,766 0,987 0,691 215,833 289,806 187,856 167,831 179,720 226,595 155,512 210,577 179,451 249,329 183,905 125,959 226,768 718,893 714,588 348,806 258,872 254,771 334,1035 525,1023 751,986 881,953 378,1043 68,1038 1,1065 46,651 228,815 572,682 834,807 813,813 766,754 368,882 178,750 233,795 155,777 389,881 88,991 659,907 710,768 421,741 507,706 548,705 933,938 977,1077 932,1055 859,1079 978,1053 1057,959 890,922 790,922 40,972 212,989 159,976 161,940 176,819 655,757 555,606 496,593 562,540 479,427 139,207 30,88 264,395 489,20 991,374 929,353 621,765 484,812 106,722 202,532 219,282 11,37 59,105 218,406 29,107 110,241 66,85 103,186 155,195 63,688 96,417 233,336 23,753 74,180 403,205 390,55 788,141 1059,211 974,547 1007,52 792,181 555,137 848,287 553,249 1015,1066 1056,1052 460,1078 31,1079 378,1044 271,473 11,6 149,120 269,140 107,446 59,712 77,735 292,844 439,773 499,765 536,652 512,881 1070,954 1051,560 1061,381 946,929 163,927 195,925 354,953 769,894 932,885 909,735 889,870 945,813 931,916 116,772 422,887 511,937 207,778 214,798 291,816 301,700 438,759 372,759 21,913 295,968 550,933 134,976 293,705 290,621 245,687 370,814 331,780 141,874 650,709 308,744 134,886 601,958 799,1030 1041,1016 530,1013 605,1001 85,691 136,155 621,220 560,313 321,924 687,965 561,820 658,768 702,642 708,555 721,472 756,257 654,144 785,302 969,308 1016,332 813,325 671,282 881,42 1030,15 375,36 378,193 150,70 685,1 1078,1 996,76 880,210 272,107 951,190 854,175 861,59 756,119 886,50 797,128 822,57 1011,5 1046,162 675,351 797,609 984,442 1074,418 1073,931 1052,452 1034,11 976,20 964,166 819,90 778,133 368,75 1040,4 956,43 839,313 835,279 974,326 889,84 1070,68 882,373 965,348 978,269 1023,246 985,224 915,69 449,145 634,114 398,150 357,236 126,893 175,985 32,855 1,224 101,76 56,684 112,760 149,1027 270,1036 275,1016 12,984 34,948 260,944 542,979 109,628 49,3 25,114 693,3 891,23 695,81 867,16 975,25 803,113 705,596 634,442 746,594 893,868 956,596 625,358 600,163 720,115 972,95 914,145 498,612 455,649 436,764 495,587 427,768 333,777 630,720 708,596 322,680 657,777 693,512 966,489 645,470 710,391 651,945 899,973 1033,752 882,804 712,806 641,628 585,599 241,661 1033,928 1032,845 799,855 838,818 974,915 1062,1009 1079,962 1079,2 1055,145 1025,117 1062,67 1044,537 906,440 541,788 198,560 89,884 99,195 7,143 0,424 2,344 20,1078 502,1044 90,850 125,799 34,976 307,23 682,35 23,17 49,127 10,111 59,963 537,1009 365,833 277,751 266,542 358,553 299,771 315,798 307,519 286,547 81,901 153,963 22,1010 21,810 37,10 266,12 128,0 498,0 209,31 101,9 293,61 6,487 11,547 132,296 51,905 117,615 121,327 11,119 1053,494 205,442 109,593 152,647 103,634 818,847 1066,829 1075,843 962,845 840,832 1075,1043 1046,986 945,466 1056,1027 966,402 1044,119 914,175 1076,109 1051,578 964,617 982,135 969,34 1027,92 571,197 638,335 656,283 241,81 172,639 113,804 44,1056 12,1050 18,931 125,1057 85,1056 218,987 426,966 291,993 98,1045 179,1036 2,1042 121,758 3,1056 119,197 57,105 64,118 218,694 273,544 259,559 360,635 744,648 625,379 498,505 407,409 466,261 309,391 266,308 436,216 684,348 708,314 716,289 752,591 638,753 906,904 935,350 951,179 942,270 958,83 903,329 1040,505 1067,1045 1049,797 875,414 884,529 852,475 608,435 812,350 835,203 820,289 412,622 786,733 750,792 1079,683 915,492 935,482 1066,531 1050,791 1075,1053 1069,858 1063,514 1070,869 827,860 917,847 867,816 963,756 925,772 783,837 56,1077 1020,1054 900,1070 1002,987 952,228 1073,659 948,1041 583,1060 339,1037 489,1009 709,860 872,994 987,829 1075,980 856,1009 1049,750 1078,270 1066,872 811,850 750,46 789,517 714,547 788,423 966,474 932,1072 302,290 688,755 227,716 155,762 0,1074 128,1023 74,443 293,536 120,296 464,224 171,54 216,156 207,160 798,39 354,110 374,712 824,757 439,801 534,851 486,442 298,175 966,141 591,124 350,216 938,80 890,63 717,102 628,63 375,129 211,185 25,31 217,120 46,809 159,519 189,484 322,145 692,70 523,71 108,181 285,140 559,100 628,33 640,172 809,833 1020,482 1046,568 1026,843 996,929 763,989 119,842 1068,1021 1028,1009 837,1016 100,960 89,866 21,1062 268,464 29,129 95,399 300,199 460,30 953,91 759,138 812,560 681,238 781,608 422,682 211,761 522,658 480,501 635,708 725,612 698,441 1000,359 1010,914 827,1036 275,948 837,972 936,937 1000,482 1019,659 527,613 563,574 1027,862 1023,812 1041,540 289,131 316,116 574,88 129,216 430,116 266,98 93,699 540,750 557,491 406,361 516,548 275,853 151,1028 13,1023 90,1008 47,538 108,1055 13,231 27,9 127,40 16,450 10,1036 20,779 72,338 89,803 51,128 161,76 493,281 958,196 960,205 1027,230 922,187 997,102 840,270 833,221 925,255 465,243 277,514 326,482 175,537 455,179 1065,449 1052,415 1045,531 1056,422 271,141 99,53 88,89 35,62 993,140 1037,373 863,856 992,104 1048,345 1034,362 998,170 1021,332 883,808 895,710 929,698 853,757 463,565 812,697 642,916 629,872 950,694 357,894 271,876 495,779 486,331 646,199 225,404 151,891 42,1060 502,131 586,107 1077,139 1066,636 849,831 985,637 565,394 917,583 866,557 894,585 739,412 859,391 963,39 778,456 899,548 740,512 720,507 741,387 882,267 573,180 973,315 966,377 458,506 522,474 432,406 613,565 257,792 24,623 273,781 186,727 175,761 400,714 273,792 918,773 945,661 780,475 721,530 711,296 921,391 1059,6 895,70 933,82 614,98 557,97 504,111 139,166 425,203 400,216 665,76 193,115 21,212 146,276 54,191 36,569 782,447 760,490 636,506 70,439 82,194 772,226 944,212 1024,38 1058,60 962,164 879,85 923,277 938,269 382,177 998,91 766,340 791,582 637,449 476,517 505,480 478,457 698,391 844,840 793,760 869,824 715,639 468,564 780,793 773,827 885,724 994,926 381,1013 92,911 23,1054 83,1016 113,1023" fill="none" stroke="black" />
</svg>
  